<svg width="48" height="48" viewBox="0 0 48 48" fill="none" xmlns="http://www.w3.org/2000/svg">
<path d="M24 4.5C13.2478 4.5 4.5 13.2478 4.5 24C4.5 34.7522 13.2478 43.5 24 43.5C34.7522 43.5 43.5 34.7522 43.5 24C43.5 13.2478 34.7522 4.5 24 4.5ZM34.1484 17.4647L21.5484 32.4647C21.4102 32.6293 21.2382 32.7623 21.0441 32.8547C20.85 32.947 20.6384 32.9966 20.4234 33H20.3981C20.1879 32.9999 19.98 32.9557 19.788 32.8701C19.5959 32.7845 19.424 32.6594 19.2834 32.5031L13.8834 26.5031C13.7463 26.3577 13.6396 26.1863 13.5697 25.999C13.4997 25.8117 13.4679 25.6123 13.4761 25.4126C13.4843 25.2129 13.5323 25.0168 13.6174 24.8359C13.7025 24.6549 13.8228 24.4929 13.9714 24.3591C14.12 24.2254 14.2939 24.1227 14.4827 24.0571C14.6716 23.9916 14.8716 23.9644 15.0711 23.9772C15.2706 23.99 15.4655 24.0426 15.6444 24.1319C15.8233 24.2211 15.9826 24.3452 16.1128 24.4969L20.3588 29.2144L31.8516 15.5353C32.1094 15.2373 32.4741 15.0526 32.8669 15.0213C33.2597 14.99 33.6491 15.1146 33.9509 15.368C34.2526 15.6215 34.4425 15.9835 34.4794 16.3759C34.5164 16.7682 34.3975 17.1593 34.1484 17.4647V17.4647Z" fill="#42A153"/>
</svg>
